<svg width="1582" height="1123" viewBox="0 0 1582 1123" fill="none" xmlns="http://www.w3.org/2000/svg">
<path fill-rule="evenodd" clip-rule="evenodd" d="M1477.58 733.074C1419.97 948.066 1198.99 1075.65 983.997 1018.05C814.492 972.627 699.32 825.651 686.405 660.125C681.248 594.04 644.233 528.822 580.206 511.666C517.748 494.931 454.64 533.036 406.484 576.187C350.508 626.346 271.109 648.134 193.091 627.229C70.2808 594.322 -2.60028 468.089 30.3066 345.278C63.2135 222.468 189.447 149.587 312.258 182.494C369.023 197.704 415.121 232.853 445.035 278.387C483.311 336.647 527.336 399.397 594.669 417.438C670.759 437.827 748.392 398.126 804.354 342.685C902.83 245.126 1049.06 201.024 1192.61 239.489C1407.6 297.096 1535.19 518.082 1477.58 733.074Z" fill="url(#paint0_linear)"/>
<defs>
<linearGradient id="paint0_linear" x1="858.251" y1="149.898" x2="649.637" y2="928.454" gradientUnits="userSpaceOnUse">
<stop stop-color="#7F7FD5"/>
<stop offset="1" stop-color="#E786D7"/>
</linearGradient>
</defs>
</svg>
